<svg role="img" viewBox="0 0 24 24" xmlns="http://www.w3.org/2000/svg" fill="#ff69b4">
  <title>GitHub</title>
  <path d="M12 0C5.371 0 0 5.372 0 12a12.004 12.004 0 008.208 11.388c.6.111.792-.258.792-.577v-2.02c-3.338.725-4.042-1.416-4.042-1.416-.546-1.386-1.332-1.756-1.332-1.756-1.09-.744.083-.729.083-.729 1.205.084 1.838 1.237 1.838 1.237 1.07 1.835 2.809 1.305 3.492.997.108-.775.419-1.305.762-1.604-2.665-.304-5.466-1.332-5.466-5.931 0-1.31.469-2.381 1.236-3.221-.124-.304-.536-1.527.117-3.176 0 0 1.008-.322 3.3 1.23a11.483 11.483 0 016 0c2.289-1.552 3.297-1.23 3.297-1.23.655 1.649.243 2.872.12 3.176.77.84 1.235 1.911 1.235 3.221 0 4.61-2.803 5.625-5.475 5.921.429.369.823 1.096.823 2.21v3.281c0 .319.192.694.801.576A12.007 12.007 0 0024 12c0-6.628-5.373-12-12-12z"/>
</svg>