<svg role="img" viewBox="0 0 24 24" xmlns="http://www.w3.org/2000/svg" fill="#ffffff">
  <title>LinkedIn</title>
  <path d="M20.447 20.452H17.21v-5.569c0-1.328-.026-3.037-1.849-3.037-1.851 0-2.134 1.445-2.134 2.937v5.669H9.003V9h3.112v1.561h.045c.434-.824 1.494-1.693 3.075-1.693 3.29 0 3.895 2.165 3.895 4.978v6.606zM5.337 7.433a1.81 1.81 0 110-3.619 1.81 1.81 0 010 3.619zM6.835 20.452H3.835V9h3v11.452zM22.225 0H1.771C.792 0 0 .774 0 1.723v20.549C0 23.226.792 24 1.771 24h20.451C23.2 24 24 23.226 24 22.271V1.723C24 .774 23.2 0 22.222 0z"/>
</svg>